<?xml version="1.0" encoding="utf-8"?>
<!-- Generator: Adobe Illustrator 15.0.0, SVG Export Plug-In  -->
<!DOCTYPE svg PUBLIC "-//W3C//DTD SVG 1.1//EN" "http://www.w3.org/Graphics/SVG/1.1/DTD/svg11.dtd" [
	<!ENTITY ns_flows "http://ns.adobe.com/Flows/1.0/">
]>
<svg version="1.1"
	 xmlns="http://www.w3.org/2000/svg" xmlns:xlink="http://www.w3.org/1999/xlink" xmlns:a="http://ns.adobe.com/AdobeSVGViewerExtensions/3.0/"
	 x="0px" y="0px" width="439px" height="606px" viewBox="0 0 439 606" overflow="visible" enable-background="new 0 0 439 606"
	 xml:space="preserve">
<defs>
</defs>
<path fill="none" stroke="#D4EFFC" stroke-width="0.5" d="M107.654,117.667c0,0-5.002-21.376-0.909-29.563
	c4.094-8.187,17.736-10.461,19.101-16.829c1.364-6.368,1.59-10.029,12.279-12.28c8.641-1.82,6.266-16.348,14.099-21.832
	c9.095-6.367,47.752-38.659,75.493-36.84c27.741,1.819,34.108,2.274,48.661,8.187s23.648,13.645,43.658,8.642
	c20.011-5.003,39.566,6.822,55.483,8.642c15.917,1.819,23.193,0.455,63.215,15.918 M175.417,194.531c0,0,11.976-0.758,21.071-4.093
	s41.996-13.409,70.339-0.606c9.398,4.245,19.404,13.342,32.138,26.076c12.734,12.735,21.224,18.496,43.962,17.284
	c22.739-1.214,95.808-2.123,95.808-2.123 M438.734,228.187c0,0-80.496,1.364-90.956,1.819s-26.832,4.094-40.021-8.187
	s-22.284-26.834-40.021-33.657s-36.438-10.575-71.855-0.455c-12.733,3.638-19.556,4.548-20.465,6.822l-32.744,6.368l-50.936,27.289
	l2.274,4.548l-5.003,2.881l-1.516-2.577L64.3,245.167 M320.491,476.971c0,0-9.096,18.193-15.462,28.503 M278.651,350.836
	c0,0,1.213,2.122,2.426,3.032c1.212,0.909,3.941,4.548,3.031,6.974c-0.909,2.426,7.883,17.586,13.644,29.108
	c5.761,11.521,17.888,38.508,20.617,56.396 M280.167,349.624c0,0,21.526,39.417,27.893,58.217
	c6.367,18.799,12.128,37.9,12.734,63.37 M276.226,345.378c0,0-42.445-72.771-46.387-79.745
	c-3.942-6.974-12.128-23.649-12.128-23.649 M158.287,91.287c0,0,6.063,16.98,9.398,39.115s1.819,25.167,8.187,36.385
	c6.366,11.219,22.436,40.024,24.861,44.875c2.425,4.852,29.712,51.547,29.712,51.547s22.436,38.508,31.834,54.881
	c9.399,16.373,16.069,26.986,16.069,26.986 M438.432,310.205c0,0-38.505-1.819-64.883-0.605
	c-26.377,1.212-47.296,13.645-52.147,15.767c-4.851,2.122-9.398,6.367-11.824,5.154 M281.685,345.984
	c0,0,26.68-13.947,27.893-15.464c1.213-1.516,14.856-12.734,41.84-20.012s71.854-4.245,86.711-4.245 M184.664,395.71
	c0,0-9.398,4.548-14.553-2.123 M189.818,396.317c0,0-7.882,7.883,0.606,16.374 M179.813,403.897c0,0,5.154-5.154,12.128-9.096
	c6.973-3.942,82.77-43.359,82.77-44.876c0,0-16.675,6.064-21.829,8.794c-5.155,2.729-15.159,8.489-20.011,10.915
	c-4.852,2.427-45.478,24.257-48.207,26.076c-2.728,1.819-6.366,7.278-6.366,7.278 M124.937,336.585c0,0,4.852,1.82,10.611,10.31
	c5.761,8.489,36.079,50.939,42.75,56.094c6.669,5.154,31.228,26.379,49.42,41.539c18.19,15.161,32.743,28.806,47.296,38.812
	c14.554,10.007,15.463,10.309,23.952,16.979c8.488,6.672,14.553,12.432,14.553,12.432 M288.051,99.475
	c0,0-30.926-14.25-89.44-15.161c-58.514-0.909-87.014,30.624-89.439,32.747c-2.426,2.122-6.368,5.761-6.064,6.974 M308.364,512.751
	c0,0-38.809-29.108-72.461-57.913c-33.654-28.805-56.394-41.843-81.861-77.016s-24.558-38.204-31.834-43.056
	s-15.463-4.852-18.191-19.103c-2.729-14.252-4.548-23.044-10.915-28.198c-6.366-5.155-12.431-6.064-16.068-9.703
	c-3.639-3.639-5.457-10.612-6.063-12.734c-0.606-2.123-6.974-6.065-7.883-8.794c-0.91-2.729,1.84-10.013,0.909-13.038
	c-2.426-7.884-16.979-13.645-19.707-20.618c-2.729-6.974,3.031-17.586,2.426-23.348c-0.606-5.761,0-27.895,15.766-43.662
	c15.766-15.768,40.626-31.534,40.626-31.534s1.213,0.606,5.458-3.639c4.244-4.245,29.502-29.742,73.371-32.746
	c44.265-3.032,84.589,2.122,121.577,17.89c0,0,12.128,3.941,37.898,19.405c25.771,15.463,41.537,33.353,61.547,32.747
	c20.011-0.606,32.744-6.064,36.383-4.548"/>
<path fill="none" stroke="#D4EFFC" stroke-width="0.5" d="M157.285,229.151l24.116-12.052 M153.418,222.33l11.376-5.686
	 M161.153,210.504l36.175,67.537 M162.291,236.883c0,0-4.778,5.229-6.825,5.457c-2.048,0.228-1.138,1.137-2.503,2.047
	c-1.365,0.909-5.232,1.818-5.232,1.818 M103.82,270.31c-0.682,0.228-2.73,5.003-8.418,2.046c-5.688-2.956-10.238,2.274-13.65,8.869
	 M134.535,311.696c0,0-4.096,2.501-5.916-3.411s0.228-6.821,2.048-7.049s2.957,2.729,0.683,3.638
	c-2.275,0.91-7.735,0.455-7.735,4.549 M131.805,332.617c0,0,3.64-1.364,2.502-3.639s-10.011-14.326-8.19-15.69
	s3.868-2.729,3.868-2.729 M81.297,181.853l-20.021,10.46c0,0,5.005,9.551,9.101,15.463c4.095,5.912,23.206,42.751,23.206,42.751
	s20.476,38.657,21.386,40.477c0.91,1.818,4.096,5.002,0,7.276c-4.096,2.273-6.825,3.184-6.825,3.184s0.91,2.273-0.455,5.002
	c0,0,7.735,10.915,7.735,13.644c0,2.729-1.365,10.461,5.46,9.097s9.783-4.094,8.418-7.505c-1.365-3.41-2.958-4.548-1.365-6.139
	c1.593-1.592,51.19-28.425,57.561-31.836 M125.662,355.356c0,0-0.911,7.504,0,12.052c0.909,4.548,5.915,16.6,21.386,35.929
	c15.471,19.328,24.116,26.378,40.497,36.61c16.38,10.232,21.386,14.099,28.438,17.51s26.846,10.232,31.624,13.416
	c4.777,3.184,6.825,2.047,7.963,0.682 M162.973,353.764l-19.565,15.918 M141.133,370.136c0,0-0.911,2.501-2.73,0.91
	c-1.82-1.592-2.73-3.639-2.048-6.14c0.683-2.502-6.143-10.233-8.646-7.505 M164.566,355.356c0,0-17.291,15.008-20.021,14.553
	c-2.73-0.454-4.096,0.455-4.096-0.909s-1.364-4.093-4.095-4.093s-3.548,1.65-7.963-3.866c-1.82-2.273-0.683-3.639-0.683-3.639
	s-2.958-2.956-2.958-4.548c0-1.591,2.048-3.638,2.048-3.638s1.82-0.228,1.82-2.047c0-1.818-4.323-1.137-2.275,2.047
	 M162.897,352.703c0-1.339,1.087-2.425,2.427-2.425c1.341,0,2.427,1.086,2.427,2.425c0,1.34-1.086,2.426-2.427,2.426
	C163.984,355.128,162.897,354.042,162.897,352.703z M227.813,364.528c0,0,2.123,6.367-4.55,10.005 M243.284,363.618
	c0,0-8.189,5.457-16.077-6.671 M110.115,127.43c0,0,0.606,8.792-1.214,11.825c0,0,14.258,28.5,16.078,31.835
	c1.819,3.335,18.959,31.76,20.476,36.914c1.517,5.154,13.575,23.498,18.429,33.2s12.361,23.271,12.664,24.483
	c0.304,1.212,5.081,10.459,8.722,14.4c3.64,3.942,4.55,8.565,18.2,34.337c13.651,25.771,32.534,59.198,33.748,62.23
	c0,0,3.556,5.597,8.797,2.729c3.186-1.743,8.418-4.699,8.418-4.699l2.502,4.396l-7.734,4.245l-5.916-10.006l-5.46,3.335
	c0,0-2.275,3.26-5.006-2.426c-2.729-5.685-20.931-40.248-23.66-44.796l-33.672-65.718 M131.35,288.729l85.847-47.298
	 M134.383,283.878l0.91,2.729 M128.013,283.271c0,0,1.517-0.606,2.124-1.818 M121.945,265.989l10.314,19.102l6.977-3.335
	 M131.956,260.532c0,0,3.337,4.245-2.73,3.941c-6.066-0.303-12.437,3.639-7.887,10.915 M154.707,332.996l43.985-23.043
	 M166.538,354.218c0,0,4.246,5.761,16.381-1.516c12.133-7.276,20.324-8.186,21.233-9.702c0.91-1.517,6.371-5.458,8.19-6.974
	 M96.161,289.335l29.728-15.766l3.034-2.729 M123.159,274.175l41.256,77.314 M60.821,158.204c0,0,39.587,74.13,44.592,83.681
	s9.556,13.189,7.28,18.646s7.508,13.871,9.101,16.373c1.593,2.501,2.957,5.685,5.232,4.548 M318.742,474.055
	c0-1.842,1.493-3.334,3.337-3.334c1.843,0,3.337,1.492,3.337,3.334c0,1.843-1.494,3.336-3.337,3.336
	C320.235,477.391,318.742,475.898,318.742,474.055z M274.832,347.851c0-1.842,1.494-3.335,3.338-3.335
	c1.843,0,3.337,1.493,3.337,3.335c0,1.843-1.494,3.336-3.337,3.336C276.326,351.187,274.832,349.694,274.832,347.851z"/>
<rect id="SVGID_2_" y="209.763" display="none" fill="none" width="305.966" height="395.957"/>
<line fill="none" stroke="#D4EFFC" stroke-width="0.5" x1="187.937" y1="283.557" x2="236.701" y2="256.29"/>
<path fill="none" stroke="#D4EFFC" stroke-width="0.5" d="M246.265,227.82l-16.153,8.646 M221.239,221.221l51.644-27.985
	 M212.14,203.702l35.718-20.022 M190.299,87.437l15.016,67.575l30.258,57.564 M86.558,205.067l44.363-23.89 M105.896,123.159
	c0,0-0.228,5.916-0.91,7.281c-0.683,1.365,2.199,4.854,3.943,8.798 M107.943,121.111c0,0,0.683,10.011-1.593,12.514
	c-2.275,2.503-3.867,5.688-6.37,1.593 M156.401,102.227c0,0,4.095,0.683,3.867,4.778c0,0-25.358,12.031-36.4,18.657
	c-2.275,1.365-6.825,5.46-8.417,4.778c-1.593-0.683-5.006-5.233-6.825-10.466 M151.852,99.268c0,0-18.883,7.509-24.798,12.742
	 M131.831,83.114c0,0-5.688,9.101-0.228,17.975s9.555,14.333,9.555,14.333 M153.898,65.595c0,0,3.867-12.059,6.598-15.245
	c2.729-3.185,10.237-7.735,22.296-4.095c12.058,3.64,24.569,7.963,28.665,5.46 M185.066,62.182c0,0-11.147,3.186-12.285,8.191
	s-0.91,7.508,2.275,22.525c3.185,15.017,15.925,69.167,15.925,69.167l33.67,65.527c0,0,6.371,9.556,6.599,14.789 M105.213,98.358
	c0,0,15.016-2.048,22.75-10.921c7.735-8.874,23.661-22.069,30.03-24.117c6.371-2.048,15.698-4.551,17.973-4.096
	c2.275,0.455,27.756,10.694,41.406,6.371 M127.054,66.277c0,0,3.185,0.228,14.787,4.778c11.603,4.551,16.835,9.329,18.655,17.292
	 M243.989,145.229c0,0-17.062,0.91-29.12,5.688c-12.058,4.778-34.58,17.064-34.58,17.064s-1.365-0.228-2.275-4.323
	c-0.909-4.096-6.37-31.626-7.053-33.446c-0.682-1.82-4.777-29.806-7.508-35.267 M251.27,249.662c0,0-0.227,10.694,1.593,13.197
	c1.82,2.502,9.1,12.286,10.01,14.562c0.911,2.274,5.688,16.381,13.423,16.154c7.735-0.228,28.725-7.838,25.48-22.98
	c-1.365-6.371-25.253-47.78-25.253-47.78l-40.95-76.675c0,0-16.38-75.766-17.745-81.226c-1.365-5.461-8.873-25.255-27.073-31.398
	c-18.2-6.144-24.57-1.593-26.617-0.91c-2.048,0.683-2.73,0.228-3.641-0.683 M219.646,244.884c0,0,7.508-5.916,20.476,0.228
	s12.513,8.19,42.771-10.922"/>
<path fill="none" stroke="#D4EFFC" stroke-width="0.5" d="M194.03,102.613l32.353-0.455 M246.432,213.002l18.91-10.47
	 M215.675,283.789l-6.607-13.201 M244.153,273.774l3.189,5.69l2.734,3.642 M193.574,280.147l7.52,11.608l14.809-8.194
	c0,0,5.468,10.242,8.43,8.649c4.188-2.254,22.328-12.746,22.328-12.746 M232.307,250.103c0,0,3.189,3.869,5.012,8.421
	c1.822,4.553,2.507,5.008,2.507,5.008"/>
<path fill="none" stroke="#D4EFFC" stroke-width="0.5" d="M266.704,258.7l-11.372,6.596 M275.347,318.739l5.459,9.323
	 M286.491,313.735c0,0,1.819,3.866,2.957,3.412c1.137-0.455,3.411-2.957,5.687,1.592c2.273,4.548,4.775,5.003,0.227,8.187
	 M310.6,322.377c0,0-7.277-10.689-8.87-11.144c-1.592-0.455,2.956,9.097,3.639,10.233c0.683,1.138,2.502,0.228,3.412-0.454
	 M306.733,302.82c0,0,5.687,2.501,1.364,7.049c-2.215,2.333-4.548,3.412-4.548,3.412 M286.719,311.234c0,0,5.004,0.227,6.823-0.683
	s10.463-11.825,11.372-12.28s3.866,0,1.819,4.549c-2.048,4.548,0.201,5.76,1.364,7.504c1.82,2.729,10.008,11.371,8.415,14.328
	 M264.43,324.197l5.914-3.866c0,0,2.797-0.349,5.686-2.274c3.411-2.274,6.368-4.094,6.368-4.094 M221.899,187.292l-14.102,8.187
	 M231.907,192.294l2.956,5.913l16.375-8.642l6.368,11.826 M231.452,206.167c0,0,14.328-8.642,16.147-9.552
	c1.819-0.909,3.184-2.956,4.549-10.916 M179.823,354.215l-5.458-10.916 M160.036,333.52l1.819,3.412l3.867,1.819 M162.083,336.022
	l2.729-2.502 M162.765,329.2l2.958,6.14 M200.748,322.15l4.32,7.732l3.412-1.82 M186.874,322.377c0,0,0.455,4.094,3.639,4.548
	 M203.932,320.331l-13.419,6.595l7.733,14.327 M195.517,215.037l6.141,11.598 M108.635,247.33l12.51-7.05 M151.849,111.106
	l7.051,12.281 M111.365,125.434c0,0,7.505-8.642,10.233-8.642c2.047,0,4.322,6.595,5.004,7.05c0.683,0.455,1.82-0.682,1.82-0.682
	l8.869,17.738 M139.339,139.534c0,0,7.733,13.417,7.961,14.327s0.682,2.274-0.91,4.549 M159.582,128.845c0,0,1.592,3.866,2.729,5.23
	s0.682,4.548,0.909,6.14c0.228,1.592,1.82,4.549,0,6.141c-1.819,1.592-7.277,3.639-7.277,3.639l-8.188,4.321 M160.036,151.587
	l-2.957-1.592 M172.09,158.637c0,0-4.093-6.595-7.96-6.14 M169.816,138.397c0,0-1.593,8.641-4.321,10.46
	c-2.73,1.82-21.38,11.372-21.38,11.372l0.91,2.046c0,0,19.104-9.779,20.697-10.688c1.592-0.91,3.411-1.819,4.549-6.595
	 M176.866,188.201l-8.188-14.327l8.188-4.549 M162.992,180.469l7.733-4.094 M86.347,158.182l-20.47,10.006 M115.458,152.724
	l50.946-27.745 M147.072,316.919l16.375-9.098 M157.989,297.816l13.873,25.471 M170.726,292.13l5.459,9.779l7.96,15.691
	 M272.05,279.963l2.842,5.231 M269.093,288.606l9.097-5.231 M268.638,269.844l-7.847,5.003 M260.108,247.215
	c0,0,3.64,5.458,4.321,5.8c0.683,0.341,4.776,0.341,4.776,0.341l6.596,12.508l-1.023,4.208l13.646,19.898 M259.312,233.002
	l-5.572,3.752 M259.881,246.875c0,0-5.778-9.541-6.141-10.12c-0.568-0.909-1.934-2.047,0-3.524c1.411-1.079,3.866-2.502,4.436-1.593
	c0.568,0.91,1.933,3.07,1.933,3.07l2.161-1.251 M278.304,237.095c0,0-13.419-25.925-13.874-27.062
	c-0.454-1.137-1.819,0.228-3.184,0.91c-1.365,0.682-12.509,6.822-13.419,7.277c-0.909,0.455,4.321,10.688,5.913,9.552
	c1.592-1.138,5.004-4.549,6.141-2.502c1.138,2.047,5.686,8.414,5.686,8.414l2.957,9.324l2.275,4.321 M291.268,272.573l6.596,11.144
	 M297.636,259.837c0,0,13.419-6.822,15.012-7.732c1.591-0.909,0.822,2.295,0.454,4.321c-0.454,2.501-2.274,2.729-4.321-1.138
	 M243.43,411.676l2.274,1.971 M270.571,416.832c0,0-3.488,8.945-6.065,7.884c-2.577-1.062-8.643-3.639-7.581-5.609
	c0.643-1.195,0.606-1.517-1.819-3.185s-6.368-5.458-10.008-1.517c-3.639,3.942-8.491,10.311-8.491,10.311 M257.986,411.374
	c0,0-5.307-6.368-2.881-7.884c1.499-0.938,9.607-5.576,11.068-6.671c1.819-1.364-2.729-6.52-2.729-6.52 M315.604,437.905
	c0,0-38.162-16.454-55.04-26.38c-2.577-1.517-4.246,2.122-2.123,3.335c0,0,2.274,1.972,4.549-1.516 M302.412,394.241l35.479-7.732
	 M291.495,379.232c0,0,18.195-10.916,22.743-11.826c4.549-0.91,20.925,0.455,20.925,0.455 M284.672,359.673
	c0,0,39.119-25.471,41.394-20.922c2.274,4.548,10.462,28.654,15.921,63.222 M181.643,17.184c0,0,0.91,4.548,5.004,2.047
	c4.094-2.502,0.455-6.141,0.455-6.141 M168.679,25.598l0.91,5.003 M265.566,69.944l6.142,4.094c0,0,2.274-0.91,3.411-0.683
	 M254.878,90.412c0,0,5.003-1.137,5.458-2.502c0.455-1.364,1.312-6.809,0-12.053c-0.682-2.729,1.138-3.639,2.274-3.866
	c1.138-0.227,5.231-1.592,3.411-4.093c-1.818-2.501-6.367,2.956-5.458,4.093 M235.545,79.951l-7.732-0.228l-6.596,1.819
	 M227.585,78.813c-0.228-0.909-3.64-10.233,4.322-8.869c9.366,1.605,0.909,15.465,0.909,15.465 M170.953,130.209
	c0,0,5.231,0.455,12.282-2.047c7.05-2.501,14.556-3.411,14.556-3.411 M211.209,167.961l34.571-2.957 M209.391,102.692l10.688,46.393
	l7.961,17.057"/>
<path fill="none" stroke="#D4EFFC" stroke-width="0.5" d="M275.287,239.063c0,0,12.539,22.788,13.907,24.154
	c1.368,1.368,1.823,2.052,8.436-2.278 M265.028,303.097c0,0,0.684,2.051,1.823,1.595c1.141-0.456,2.28-1.368,2.28-1.368
	 M251.805,300.59c0,0,4.788-2.963,5.7-3.419c0.911-0.455,1.596,0,3.875-1.139c2.28-1.14,2.736-1.823,3.648-1.596
	c0.912,0.229,3.647,4.786,3.647,5.697s-4.332,2.963-5.699,5.014c-1.368,2.051-5.7,3.873-5.7,3.873 M259.784,275.751
	c0,0-0.456,1.595-0.456,2.507c0,0.911-2.279,3.646-2.735,4.558c-0.456,0.911,5.472,10.254,6.84,12.761 M255.681,267.32
	c0,0-2.505,3.345,1.14,6.381c4.104,3.418,4.788,0.911,4.788,0.911"/>
<path fill="none" stroke="#D4EFFC" stroke-width="0.5" d="M275.262,220.374l-4.355,2.285 M281.451,259.46l3.897-2.285"/>
<path fill="none" stroke="#D4EFFC" stroke-width="0.5" d="M73.152,181.566l5.004-2.958l-3.412-6.598 M87.481,187.027l7.733,14.107
	 M102.947,190.667l1.365,4.778 M89.983,179.973l7.961,13.424l8.643-4.778 M107.27,193.853l-0.683-4.551l-8.87-15.245
	 M85.435,187.027h2.047l10.008-6.144l2.047-4.323 M63.827,209.552l5.913-3.186 M69.513,250.281c0,0-2.047,3.186-0.909,3.867
	c1.137,0.684,4.776,3.869,4.776,3.869 M69.058,249.598c0,0,5.459,10.693,6.142,12.514s-2.729,3.413-3.412,4.096 M114.093,276.902
	l1.137,1.819 M107.042,274.854l2.274,0.455l1.819,3.186c0,0,3.64-1.82,4.094-2.73c0.455-0.91,1.138-5.006,1.138-5.006
	 M100.219,258.244c0,0,4.321,8.191,5.23,9.784c0.91,1.593,2.048,3.186,0.455,4.323 M106.132,254.832c0,0-6.596,3.868-7.506,4.323
	 M113.183,259.382c0,0,2.274,1.593,3.866-0.228c1.593-1.82,3.412-2.959,5.231-2.275c1.82,0.683,5.005-0.456,17.059-7.281
	 M114.775,244.365l6.368,12.515 M91.575,216.378l4.776-3.186l2.502-0.455l2.502-2.275c0,0,11.827,24.346,13.42,25.028
	c1.592,0.683,3.866-0.683,3.866-0.683s3.185,6.371,3.639,7.054c0.455,0.683,1.593,0.228,2.502-0.455 M165.723,294.194l-3.639-6.371
	l-2.274-1.137l-50.267-93.516 M160.719,297.152l-3.866-6.826l0.455-2.73l-39.804-73.037l-10.689-20.023 M139.566,284.637
	l10.008,18.431 M136.154,298.972c0,0,15.694-8.874,16.831-9.102c1.138-0.227,2.503,0.683,2.048,2.73s2.956,6.145,2.956,6.145
	 M153.44,320.36l5.459,10.467 M164.813,295.105l22.29,42.548 M242.6,325.367l3.64,6.825l-16.376,9.102 M258.976,316.72
	l-21.606,11.604l3.866,6.826 M236.231,213.42l3.639,7.28l-13.874,7.281 M252.152,227.754c0,0-3.411,1.139,0.683,6.371"/>
<path fill="none" stroke="#D4EFFC" stroke-width="0.5" d="M276.935,386.979l14.554-9.101 M165.963,327.374l5.912,10.92
	 M97.742,127.397c0,0-19.103-0.455-20.012-1.137c-0.91-0.682-7.05-1.82-8.414-1.82s-16.601,4.55-20.238,6.598
	c-3.639,2.048-5.913,4.778-6.141,10.011c-0.227,5.232-3.866,3.412-4.093,8.873 M62.04,121.027c0,0,1.592-1.592,3.865-2.047
	c2.274-0.455,3.792-1.324,5.458,1.592c0.909,1.593,1.137-2.274,2.501-1.82c1.364,0.455,5.23,2.958,7.504,4.55
	c2.274,1.592-1.364,3.64-1.364,3.64s-1.069,1.419-0.454,2.958c0.454,1.137,2.501,0.683,3.865,0.683c1.365,0,2.274,1.82,2.274,1.82
	 M75.684,144.005c0,0-0.228-3.64-5.003,0s-11.824,9.555-11.824,9.555 M76.139,162.888l0.227-2.73l6.822-4.095l1.593,2.73
	 M109.111,144.232c0,0,3.411,6.825,3.866,7.962c0.455,1.138,2.729-0.455,2.729-0.455 M109.339,140.592l-11.369,5.46
	c0,0,0.909,2.048-5.23,4.55 M95.923,173.581l-5.913,3.413 M120.255,161.295l-21.376,11.375 M128.896,160.158l2.047,3.867
	l4.321,7.735 M143.222,159.703l-7.049,2.73l-5.913,1.82l-6.367,3.64 M127.986,176.311l10.688-6.143l6.367-7.963 M212.353,186.321
	l1.819,5.688l4.775,8.19 M192.795,218.171l3.412-2.275l4.775-2.274 M199.391,224.086l-5.23,2.957 M197.798,218.626l-4.774,2.957
	l1.592,2.73l4.093-2.275 M191.204,260.26l1.591,3.411l3.867-2.047l-1.593-3.412L191.204,260.26z M189.839,263.217l6.368-3.412
	 M201.438,254.117l13.644-7.735l2.274,4.096l-13.645,7.735L201.438,254.117z M209.851,245.472l1.364,2.729 M204.166,248.657
	l1.364,3.185 M187.565,270.952l4.321-2.729 M184.609,261.625c0,0-0.91,2.274,1.592,7.053c2.501,4.777,4.32,7.735,4.32,7.735
	 M183.927,259.805l5.685,10.237 M171.875,240.921l1.592,2.275 M169.601,242.059l1.137,2.275 M167.1,246.609l10.232-5.688
	 M182.79,250.705l-5.458,2.957l4.321,7.508 M171.875,280.052l3.639,4.778l1.592,3.412 M181.426,275.275
	c0,0-15.236,8.418-16.373,9.101c-1.137,0.682-1.592,1.819,0,3.185s3.184,5.232,3.184,5.232 M145.041,285.967
	c0,0,4.548-2.503,5.912-3.185c1.365-0.683,2.274-0.91,2.956,0.454c0.683,1.366,1.593,2.503,0.455,3.186
	c-1.137,0.683-6.821,3.867-7.504,4.095s-2.047,1.365-3.184-0.91C142.54,287.333,143.449,286.877,145.041,285.967z M143.677,289.834
	l10.46-5.687 M149.361,278.687l2.047,3.413 M142.312,282.783l1.819,2.957 M130.942,264.583l1.819,3.185 M162.096,265.264
	l5.004-2.729 M168.464,250.705c0,0-8.187,4.55-9.096,5.005c-0.91,0.455-2.274,1.365-1.138,3.412
	c1.138,2.048,6.141,10.921,6.141,10.921 M135.49,227.499l15.463-8.872 M83.188,229.546l5.686-2.957 M94.104,240.694l-3.184-0.683
	l-1.365,0.683 M95.695,210.208l1.364,2.958"/>
<path fill="none" stroke="#D4EFFC" stroke-width="0.5" d="M307.415,402.888l25.043-4.553l1.82,10.015 M285.56,409.716l17.303-8.649
	 M229.101,235.83l-12.293,6.375"/>
<polyline id="SVGID_1_" fill="none" points="0,209.763 0,605.72 305.966,605.72 "/>
</svg>
