<?xml version="1.0" encoding="utf-8"?>
<!-- Generator: Adobe Illustrator 19.1.0, SVG Export Plug-In . SVG Version: 6.00 Build 0)  -->
<svg version="1.1" id="Layer_1" xmlns="http://www.w3.org/2000/svg" xmlns:xlink="http://www.w3.org/1999/xlink" x="0px" y="0px"
	 width="200px" height="26.9px" viewBox="-366 268.1 200 26.9" style="enable-background:new -366 268.1 200 26.9;"
	 xml:space="preserve">
<style type="text/css">
	.st0{fill:#0C2244;}
</style>
<g>
	<g>
		<path d="M-277.2,279v4.2c0,1.6,0.7,2.3,1.7,2.3c1,0,1.7-0.7,1.7-2.3V279h1v4.1c0,2.2-1.1,3.1-2.7,3.1c-1.5,0-2.5-0.8-2.5-3.1v-4.2
			L-277.2,279L-277.2,279z"/>
		<path d="M-271.4,286.1V279h1l2.3,3.6c0.5,0.8,1,1.6,1.3,2.3l0,0c-0.1-1-0.1-1.8-0.1-2.9v-3h0.9v7.1h-1l-2.3-3.6
			c-0.5-0.8-1-1.6-1.3-2.4l0,0c0.1,0.9,0.1,1.7,0.1,2.9v3.1L-271.4,286.1L-271.4,286.1z"/>
		<path d="M-263.6,279v7.1h-0.9V279H-263.6z"/>
		<path d="M-260.6,279.8h-2.2V279h5.2v0.8h-2.2v6.3h-1L-260.6,279.8L-260.6,279.8z"/>
		<path d="M-254.7,285c0.4,0.3,1,0.4,1.7,0.4c1,0,1.5-0.5,1.5-1.2c0-0.7-0.3-1-1.3-1.4c-1.1-0.4-1.8-1-1.8-2c0-1.1,0.9-1.9,2.3-1.9
			c0.7,0,1.2,0.2,1.6,0.3l-0.3,0.8c-0.3-0.1-0.7-0.3-1.3-0.3c-1,0-1.3,0.6-1.3,1c0,0.7,0.4,1,1.4,1.4c1.2,0.4,1.8,1,1.8,2.1
			c0,1-0.8,2-2.4,2c-0.7,0-1.4-0.2-1.8-0.4L-254.7,285z"/>
		<path d="M-248.2,283.9l-0.7,2.2h-1l2.4-7.1h1.1l2.4,7.1h-1l-0.8-2.2H-248.2z M-245.9,283.2l-0.7-2c-0.2-0.4-0.3-0.9-0.3-1.3l0,0
			c-0.1,0.4-0.3,0.9-0.3,1.3l-0.7,2H-245.9z"/>
		<path d="M-237,283c-0.1-1-0.1-2.2-0.1-3.1l0,0c-0.3,0.8-0.5,1.7-0.9,2.7l-1.2,3.4h-0.7l-1.1-3.4c-0.3-1-0.6-1.9-0.8-2.7l0,0
			c0,0.9-0.1,2.1-0.2,3.1l-0.2,3.1h-0.9l0.5-7.1h1.1l1.2,3.4c0.3,0.9,0.5,1.7,0.7,2.4l0,0c0.2-0.7,0.4-1.5,0.8-2.4l1.2-3.4h1.1
			l0.4,7.1h-0.9L-237,283z"/>
		<path d="M-234.6,279.1c0.4-0.1,1-0.2,1.7-0.2c0.9,0,1.6,0.2,2,0.6c0.3,0.3,0.6,0.9,0.6,1.5s-0.2,1.1-0.5,1.5
			c-0.5,0.5-1.3,0.8-2.2,0.8c-0.3,0-0.5,0-0.7-0.1v2.8h-0.9L-234.6,279.1L-234.6,279.1L-234.6,279.1z M-233.6,282.5
			c0.2,0.1,0.4,0.1,0.8,0.1c1.1,0,1.7-0.5,1.7-1.5s-0.7-1.4-1.7-1.4c-0.4,0-0.7,0-0.9,0.1V282.5z"/>
		<path d="M-229,279h0.9v6.3h3.1v0.8h-3.9V279z"/>
		<path d="M-220.4,282.8h-2.7v2.5h3.1v0.8h-3.9V279h3.8v0.8h-2.9v2.3h2.7L-220.4,282.8L-220.4,282.8L-220.4,282.8z"/>
		<path d="M-216.7,285c0.4,0.3,1,0.4,1.7,0.4c1,0,1.5-0.5,1.5-1.2c0-0.7-0.3-1-1.3-1.4c-1.1-0.4-1.8-1-1.8-2c0-1.1,0.9-1.9,2.3-1.9
			c0.7,0,1.2,0.2,1.6,0.3l-0.3,0.8c-0.3-0.1-0.7-0.3-1.3-0.3c-1,0-1.3,0.6-1.3,1c0,0.7,0.4,1,1.4,1.4c1.2,0.4,1.8,1,1.8,2.1
			c0,1-0.8,2-2.4,2c-0.7,0-1.4-0.2-1.8-0.4L-216.7,285z"/>
		<path d="M-210.5,279v7.1h-0.9V279H-210.5z"/>
		<path d="M-203.6,285.8c-0.4,0.2-1.2,0.3-2.2,0.3c-1,0-1.9-0.3-2.6-1c-0.6-0.6-1-1.6-1-2.6c0-2.1,1.5-3.7,3.8-3.7
			c0.8,0,1.5,0.2,1.7,0.3l-0.3,0.8c-0.3-0.2-0.9-0.3-1.6-0.3c-1.7,0-2.8,1-2.8,2.8c0,1.8,1,2.9,2.7,2.9c0.6,0,1-0.1,1.2-0.2v-2.1
			h-1.4v-0.7h2.4L-203.6,285.8L-203.6,285.8z"/>
		<path d="M-202.2,286.1V279h1l2.3,3.6c0.5,0.8,1,1.6,1.3,2.3l0,0c-0.1-1-0.1-1.8-0.1-2.9v-3h0.9v7.1h-1l-2.3-3.6
			c-0.5-0.8-1-1.6-1.3-2.4l0,0c0.1,0.9,0.1,1.7,0.1,2.9v3.1L-202.2,286.1L-202.2,286.1z"/>
		<path d="M-194.1,283.9l-0.7,2.2h-1l2.4-7.1h1.1l2.4,7.1h-1l-0.8-2.2H-194.1z M-191.8,283.2l-0.7-2c-0.2-0.4-0.3-0.9-0.3-1.3l0,0
			c-0.1,0.4-0.3,0.9-0.3,1.3l-0.7,2H-191.8z"/>
		<path d="M-188.3,279.8h-2.2V279h5.2v0.8h-2.2v6.3h-1L-188.3,279.8L-188.3,279.8z"/>
		<path d="M-183.5,279v4.2c0,1.6,0.7,2.3,1.7,2.3c1,0,1.7-0.7,1.7-2.3V279h1v4.1c0,2.2-1.1,3.1-2.7,3.1c-1.5,0-2.5-0.8-2.5-3.1v-4.2
			L-183.5,279L-183.5,279z"/>
		<path d="M-177.6,279.2c0.4-0.1,1.1-0.2,1.7-0.2c1,0,1.6,0.2,2,0.6c0.3,0.3,0.5,0.8,0.5,1.3c0,1-0.6,1.6-1.3,1.8l0,0
			c0.5,0.2,0.9,0.7,1,1.4c0.3,1,0.4,1.7,0.5,1.9h-1c-0.1-0.2-0.3-0.8-0.4-1.7c-0.2-1-0.6-1.3-1.4-1.4h-0.9v3.1h-0.9V279.2z
			 M-176.7,282.3h1c1,0,1.6-0.5,1.6-1.3c0-0.9-0.7-1.3-1.7-1.3c-0.4,0-0.8,0-0.9,0.1V282.3z"/>
		<path d="M-168.3,282.8h-2.7v2.5h3.1v0.8h-3.9V279h3.8v0.8h-2.9v2.3h2.7L-168.3,282.8L-168.3,282.8L-168.3,282.8z"/>
	</g>
	<g>
		<path class="st0" d="M-355.1,293.2c-6.9,0-10.9-3.7-10.9-9.9v-14.8h5.7v14.5c0,3.6,1.9,5.6,5.3,5.6c3.5,0,5.4-1.9,5.4-5.4v-14.7
			h5.8v14.7C-343.9,289.4-348.2,293.2-355.1,293.2"/>
		<path class="st0" d="M-333.6,278.3h2.1c2.8,0,4.3-1,4.3-2.9s-1.3-2.7-4.1-2.7h-2.3C-333.6,272.7-333.6,278.3-333.6,278.3z
			 M-333.6,288.8h2.4c2.2,0,4.8-0.5,4.8-3.2c0-2.8-2.7-3.4-4.9-3.4h-2.4V288.8z M-331.1,292.8h-8v-24.2h8c5.9,0,9.2,2.3,9.2,6.5
			c0,2.2-1.1,3.8-3.3,4.9c2.9,1,4.4,3,4.4,5.8C-320.7,290.3-324.4,292.8-331.1,292.8"/>
		<path class="st0" d="M-304.8,293.2c-7.9,0-12.9-4.9-12.9-12.5c0-7.5,5.2-12.6,13-12.6c2.9,0,5.3,0.6,7.4,1.7l0.3,0.2l-0.9,4.9
			l-0.3-0.3c-2.1-1.4-4-2-6.2-2c-4.6,0-7.4,3-7.4,8c0,4.9,2.9,8,7.5,8c2.2,0,4.4-0.7,6.6-2l0.3-0.3l0.8,4.6l-0.2,0.1
			C-299,292.5-301.9,293.2-304.8,293.2"/>
	</g>
</g>
</svg>
