<?xml version="1.0" encoding="utf-8"?>
<!-- Generator: Adobe Illustrator 19.1.0, SVG Export Plug-In . SVG Version: 6.00 Build 0)  -->
<svg version="1.1" id="Layer_1" xmlns="http://www.w3.org/2000/svg" xmlns:xlink="http://www.w3.org/1999/xlink" x="0px" y="0px"
	 width="226.4px" height="28.7px" viewBox="-366 266.3 226.4 28.7" style="enable-background:new -366 266.3 226.4 28.7;"
	 xml:space="preserve">
<style type="text/css">
	.st0{fill:#0C2244;}
</style>
<g>
	<g>
		<path d="M-277.6,279v4.2c0,1.6,0.7,2.3,1.7,2.3c1,0,1.7-0.7,1.7-2.3V279h1v4.1c0,2.2-1.1,3-2.7,3c-1.5,0-2.5-0.8-2.5-3v-4.2
			L-277.6,279L-277.6,279z"/>
		<path d="M-271.7,286V279h1l2.3,3.6c0.5,0.8,1,1.6,1.3,2.3l0,0c-0.1-1-0.1-1.8-0.1-2.9v-3h0.9v7.1h-1l-2.3-3.6
			c-0.5-0.8-1-1.6-1.3-2.4l0,0c0.1,0.9,0.1,1.7,0.1,2.9v3L-271.7,286L-271.7,286z"/>
		<path d="M-264,279v7.1h-0.9V279H-264z"/>
		<path d="M-261,279.7h-2.2V279h5.2v0.8h-2.2v6.3h-1L-261,279.7L-261,279.7z"/>
		<path d="M-255.1,285c0.4,0.3,1,0.4,1.7,0.4c1,0,1.5-0.5,1.5-1.2c0-0.7-0.3-1-1.3-1.4c-1.1-0.4-1.8-1-1.8-2c0-1.1,0.9-1.9,2.3-1.9
			c0.7,0,1.2,0.2,1.6,0.3l-0.3,0.8c-0.3-0.1-0.7-0.3-1.3-0.3c-1,0-1.3,0.6-1.3,1c0,0.7,0.4,1,1.4,1.4c1.2,0.4,1.8,1,1.8,2.1
			c0,1-0.8,2-2.4,2c-0.7,0-1.4-0.2-1.8-0.4L-255.1,285z"/>
		<path d="M-248.7,283.8l-0.7,2.2h-1l2.4-7.1h1.1l2.4,7.1h-1l-0.8-2.2H-248.7z M-246.4,283.1l-0.7-2c-0.2-0.4-0.3-0.9-0.3-1.3l0,0
			c-0.1,0.4-0.3,0.9-0.3,1.3l-0.7,2H-246.4z"/>
		<path d="M-237.5,283c-0.1-1-0.1-2.2-0.1-3l0,0c-0.3,0.8-0.5,1.7-0.9,2.7l-1.2,3.4h-0.7l-1.1-3.4c-0.3-1-0.6-1.9-0.8-2.7l0,0
			c0,0.9-0.1,2.1-0.2,3.1l-0.2,3h-0.9l0.5-7.1h1.1l1.2,3.4c0.3,0.9,0.5,1.7,0.7,2.4l0,0c0.2-0.7,0.4-1.5,0.8-2.4l1.2-3.4h1.1
			l0.4,7.1h-0.9L-237.5,283z"/>
		<path d="M-235.1,279c0.4-0.1,1-0.2,1.7-0.2c0.9,0,1.6,0.2,2,0.6c0.3,0.3,0.6,0.9,0.6,1.5s-0.2,1.1-0.5,1.5
			c-0.5,0.5-1.3,0.8-2.2,0.8c-0.3,0-0.5,0-0.7-0.1v2.8h-0.9L-235.1,279L-235.1,279L-235.1,279z M-234.1,282.4
			c0.2,0.1,0.4,0.1,0.8,0.1c1.1,0,1.7-0.5,1.7-1.5s-0.7-1.4-1.7-1.4c-0.4,0-0.7,0-0.9,0.1V282.4z"/>
		<path d="M-229.5,279h0.9v6.3h3v0.8h-3.9V279z"/>
		<path d="M-221,282.7h-2.7v2.5h3v0.8h-3.9V279h3.8v0.8h-2.9v2.3h2.7L-221,282.7L-221,282.7L-221,282.7z"/>
		<path d="M-217.3,285c0.4,0.3,1,0.4,1.7,0.4c1,0,1.5-0.5,1.5-1.2c0-0.7-0.3-1-1.3-1.4c-1.1-0.4-1.8-1-1.8-2c0-1.1,0.9-1.9,2.3-1.9
			c0.7,0,1.2,0.2,1.6,0.3l-0.3,0.8c-0.3-0.1-0.7-0.3-1.3-0.3c-1,0-1.3,0.6-1.3,1c0,0.7,0.4,1,1.4,1.4c1.2,0.4,1.8,1,1.8,2.1
			c0,1-0.8,2-2.4,2c-0.7,0-1.4-0.2-1.8-0.4L-217.3,285z"/>
		<path d="M-211.1,279v7.1h-0.9V279H-211.1z"/>
		<path d="M-204.2,285.7c-0.4,0.2-1.2,0.3-2.2,0.3c-1,0-1.9-0.3-2.6-1c-0.6-0.6-1-1.6-1-2.6c0-2.1,1.5-3.7,3.8-3.7
			c0.8,0,1.5,0.2,1.7,0.3l-0.3,0.8c-0.3-0.2-0.9-0.3-1.6-0.3c-1.7,0-2.8,1-2.8,2.8c0,1.8,1,2.9,2.7,2.9c0.6,0,1-0.1,1.2-0.2v-2.1
			h-1.4v-0.7h2.4L-204.2,285.7L-204.2,285.7z"/>
		<path d="M-202.8,286V279h1l2.3,3.6c0.5,0.8,1,1.6,1.3,2.3l0,0c-0.1-1-0.1-1.8-0.1-2.9v-3h0.9v7.1h-1l-2.3-3.6
			c-0.5-0.8-1-1.6-1.3-2.4l0,0c0.1,0.9,0.1,1.7,0.1,2.9v3L-202.8,286L-202.8,286z"/>
		<path d="M-194.8,283.8l-0.7,2.2h-1l2.4-7.1h1.1l2.4,7.1h-1l-0.8-2.2H-194.8z M-192.5,283.1l-0.7-2c-0.2-0.4-0.3-0.9-0.3-1.3l0,0
			c-0.1,0.4-0.3,0.9-0.3,1.3l-0.7,2H-192.5z"/>
		<path d="M-189,279.7h-2.2V279h5.2v0.8h-2.2v6.3h-1L-189,279.7L-189,279.7z"/>
		<path d="M-184.2,279v4.2c0,1.6,0.7,2.3,1.7,2.3c1,0,1.7-0.7,1.7-2.3V279h1v4.1c0,2.2-1.1,3-2.7,3c-1.5,0-2.5-0.8-2.5-3v-4.2
			L-184.2,279L-184.2,279z"/>
		<path d="M-178.4,279.1c0.4-0.1,1.1-0.2,1.7-0.2c1,0,1.6,0.2,2,0.6c0.3,0.3,0.5,0.8,0.5,1.3c0,1-0.6,1.6-1.3,1.8l0,0
			c0.5,0.2,0.9,0.7,1,1.4c0.3,1,0.4,1.7,0.5,1.9h-1c-0.1-0.2-0.3-0.8-0.4-1.7c-0.2-1-0.6-1.3-1.4-1.4h-0.9v3h-0.9V279.1z
			 M-177.5,282.3h1c1,0,1.6-0.5,1.6-1.3c0-0.9-0.7-1.3-1.7-1.3c-0.4,0-0.8,0-0.9,0.1V282.3z"/>
		<path d="M-169.1,282.7h-2.7v2.5h3v0.8h-3.9V279h3.8v0.8h-2.9v2.3h2.7L-169.1,282.7L-169.1,282.7L-169.1,282.7z"/>
	</g>
	<g>
		<path class="st0" d="M-355.1,293.1c-6.9,0-10.9-3.7-10.9-9.8v-14.7h5.7V283c0,3.6,1.9,5.6,5.3,5.6c3.5,0,5.4-1.9,5.4-5.4v-14.6
			h5.7v14.6C-344,289.3-348.2,293.1-355.1,293.1"/>
		<path class="st0" d="M-333.7,278.3h2.1c2.8,0,4.3-1,4.3-2.9c0-1.8-1.3-2.7-4.1-2.7h-2.3C-333.7,272.7-333.7,278.3-333.7,278.3z
			 M-333.7,288.7h2.4c2.2,0,4.8-0.5,4.8-3.2c0-2.8-2.7-3.4-4.9-3.4h-2.4V288.7z M-331.2,292.7h-7.9v-24.1h8c5.9,0,9.1,2.3,9.1,6.4
			c0,2.2-1.1,3.8-3.3,4.9c2.9,1,4.4,3,4.4,5.7C-320.9,290.2-324.5,292.7-331.2,292.7"/>
		<path class="st0" d="M-305,293.1c-7.8,0-12.9-4.9-12.9-12.5c0-7.5,5.2-12.5,13-12.5c2.9,0,5.3,0.6,7.4,1.7l0.3,0.2l-0.9,4.9
			l-0.3-0.3c-2.1-1.4-4-2-6.2-2c-4.6,0-7.4,3-7.4,8c0,4.9,2.9,7.9,7.5,7.9c2.2,0,4.4-0.7,6.6-2l0.3-0.3l0.8,4.6l-0.2,0.1
			C-299.3,292.4-302.1,293.1-305,293.1"/>
	</g>
</g>
</svg>
