<?xml version="1.0" encoding="utf-8"?>
<!-- Generator: Adobe Illustrator 17.1.0, SVG Export Plug-In . SVG Version: 6.00 Build 0)  -->
<!DOCTYPE svg PUBLIC "-//W3C//DTD SVG 1.1//EN" "http://www.w3.org/Graphics/SVG/1.1/DTD/svg11.dtd">
<svg version="1.1" id="Layer_1" xmlns="http://www.w3.org/2000/svg" xmlns:xlink="http://www.w3.org/1999/xlink" x="0px" y="0px"
	 viewBox="0 0 403 38" enable-background="new 0 0 403 38" xml:space="preserve">
<g>
	<g>
		<path fill="#0C2244" d="M14,30.5c-7.9,0-12.5-4.2-12.5-11.3V2.3H8v16.6c0,4.1,2.2,6.4,6.1,6.4c4,0,6.2-2.2,6.2-6.2V2.3h6.6v16.8
			C26.8,26.1,21.9,30.5,14,30.5"/>
		<path fill="#0C2244" d="M38.6,13.4H41c3.2,0,4.9-1.2,4.9-3.3c0-2.1-1.5-3.1-4.7-3.1h-2.6V13.4z M38.6,25.4h2.8
			c2.5,0,5.5-0.6,5.5-3.7c0-3.2-3.1-3.9-5.6-3.9h-2.7V25.4z M41.4,30h-9.1V2.3h9.2C48.3,2.3,52,4.9,52,9.7c0,2.5-1.3,4.4-3.8,5.6
			c3.3,1.2,5,3.4,5,6.6C53.3,27.1,49.1,30,41.4,30"/>
		<path fill="#0C2244" d="M71.5,30.5c-9,0-14.8-5.6-14.8-14.3c0-8.6,6-14.4,14.9-14.4c3.3,0,6.1,0.7,8.5,2L80.4,4l-1,5.6L79,9.3
			C76.6,7.7,74.4,7,71.9,7c-5.3,0-8.5,3.4-8.5,9.2c0,5.6,3.3,9.1,8.6,9.1c2.5,0,5-0.8,7.6-2.3l0.4-0.3l0.9,5.3l-0.2,0.1
			C78.1,29.6,74.8,30.5,71.5,30.5"/>
	</g>
	<g>
		<path fill="#0C2244" d="M99.1,30.1c-3.4,0-6.2-0.8-8.7-1.9l0.8-4.8c2.3,1.4,5.2,2.4,8,2.4c2.4,0,4.1-1.2,4.1-3.4c0-2-1-2.9-5-4.6
			c-5.4-2.2-7.5-4-7.5-8.2c0-4.9,3.8-7.7,8.9-7.7c3.1,0,5.3,0.6,7.3,1.7l-0.8,4.8c-2-1.3-4.4-2.2-6.5-2.2c-2.6,0-3.8,1.3-3.8,3
			c0,1.8,0.9,2.6,4.7,4.2c5.7,2.3,7.8,4.3,7.8,8.6C108.4,27.3,104.4,30.1,99.1,30.1z"/>
		<path fill="#0C2244" d="M121.5,30.2c-5.4,0-9.2-3.6-9.2-9.9c0-6.7,4.2-10.2,9.4-10.2c2.6,0,4.5,0.7,6,1.6L127,16
			c-1.6-1.2-3.2-1.8-5.1-1.8c-2.8,0-4.8,2-4.8,5.9c0,4,2.2,5.9,5.1,5.9c1.7,0,3.2-0.4,5-1.8l0.6,4.1
			C125.9,29.6,123.9,30.2,121.5,30.2z"/>
		<path fill="#0C2244" d="M144.4,29.8V17.2c0-1.7-0.7-2.8-2.5-2.8c-1.5,0-3,1-4.4,2.4v13h-4.8V1.7l4.8-0.8v12
			c1.6-1.5,3.6-2.8,6.2-2.8c3.6,0,5.5,2.2,5.5,5.8v13.9H144.4z"/>
		<path fill="#0C2244" d="M163.2,30.2c-5.2,0-9-3.8-9-10c0-6.3,3.8-10.1,9.1-10.1c5.3,0,9.1,3.8,9.1,10.1
			C172.3,26.4,168.5,30.2,163.2,30.2z M163.2,14c-2.8,0-4.4,2.5-4.4,6.1c0,3.5,1.6,6.1,4.4,6.1c3,0,4.5-2.5,4.5-6.1
			C167.7,16.6,166.1,14,163.2,14z"/>
		<path fill="#0C2244" d="M185.4,30.2c-5.2,0-9-3.8-9-10c0-6.3,3.8-10.1,9.1-10.1c5.3,0,9.1,3.8,9.1,10.1
			C194.6,26.4,190.7,30.2,185.4,30.2z M185.4,14c-2.8,0-4.4,2.5-4.4,6.1c0,3.5,1.6,6.1,4.4,6.1c3,0,4.5-2.5,4.5-6.1
			C189.9,16.6,188.3,14,185.4,14z"/>
		<path fill="#0C2244" d="M199.5,29.8V1.7l4.8-0.8v28.9H199.5z"/>
		<path fill="#0C2244" d="M225.9,30.2c-5.2,0-9-3.8-9-10c0-6.3,3.8-10.1,9.1-10.1c5.3,0,9.1,3.8,9.1,10.1
			C235.1,26.4,231.2,30.2,225.9,30.2z M225.9,14c-2.8,0-4.4,2.5-4.4,6.1c0,3.5,1.6,6.1,4.4,6.1c3,0,4.5-2.5,4.5-6.1
			C230.4,16.6,228.8,14,225.9,14z"/>
		<path fill="#0C2244" d="M248.9,5.2c-1.6,0-2.5,0.7-2.5,2.4v2.8h3.7l0.6,3.9h-4.3v15.4h-4.8V14.4h-2.8v-3.9h2.8V7.2
			c0-4.3,2.7-5.9,6.7-5.9c0.7,0,1.4,0.1,2,0.2l0.6,3.9C250.4,5.3,249.7,5.2,248.9,5.2z"/>
		<path fill="#0C2244" d="M281.7,29.8l-13-19v19h-4.9V2.2h5l12.4,18.1V2.2h4.9v27.6H281.7z"/>
		<path fill="#0C2244" d="M305.3,29.8l-0.4-2.7c-1.8,1.7-3.9,3.1-6.4,3.1c-3.6,0-5.5-2.2-5.5-5.8V10.5h4.8v12.6
			c0,1.7,0.7,2.8,2.4,2.8c1.5,0,3-1,4.4-2.4v-13h4.8v19.3H305.3z"/>
		<path fill="#0C2244" d="M320.6,18.7v11.1h-4.8V10.5h4.1l0.6,3.9c1.3-2.2,3.2-4.1,6.2-4.3l0.8,4.8C324.5,15,322,16.6,320.6,18.7z"
			/>
		<path fill="#0C2244" d="M338.2,30.2c-2.8,0-5.7-0.9-7.5-1.9l0.6-4c2.1,1.4,4.6,2.3,7,2.3c2.1,0,3.2-0.8,3.2-2
			c0-1.4-0.8-1.9-3.9-2.7c-4.7-1.2-6.6-2.6-6.6-6.1c0-3.3,2.6-5.7,7.1-5.7c2.5,0,4.8,0.5,6.8,1.4l-0.6,4c-1.9-1.1-4.2-1.8-6.1-1.8
			c-1.8,0-2.7,0.7-2.7,1.8c0,1,0.7,1.6,3.6,2.4c5,1.3,7,2.6,7,6.3C346,27.9,343.3,30.2,338.2,30.2z"/>
		<path fill="#0C2244" d="M353.8,7.2c-1.6,0-2.9-1.1-2.9-2.7c0-1.6,1.3-2.8,2.9-2.8c1.6,0,2.8,1.2,2.8,2.8
			C356.7,6.1,355.4,7.2,353.8,7.2z M351.4,29.8V10.5h4.8v19.3H351.4z"/>
		<path fill="#0C2244" d="M374.5,29.8V17.2c0-1.7-0.7-2.8-2.5-2.8c-1.5,0-3,1-4.4,2.4v13h-4.8V10.5h4.1l0.4,2.7
			c1.8-1.7,3.8-3.1,6.4-3.1c3.6,0,5.5,2.2,5.5,5.8v13.9H374.5z"/>
		<path fill="#0C2244" d="M392.5,37.1c-2.9,0-5.3-0.6-7.4-1.4l0.7-4c1.9,1,4.1,1.6,6.4,1.6c3,0,4.5-1.5,4.5-4.1v-2
			c-1.3,1.2-3,2.5-5.5,2.5c-4.1,0-7.3-3-7.3-9.3c0-6.8,3.8-10.2,9.6-10.2c3,0,5.5,0.5,7.9,1.3V29C401.5,34.1,398.6,37.1,392.5,37.1z
			 M396.7,14.7c-1-0.4-1.7-0.6-3-0.6c-3,0-4.9,1.9-4.9,6c0,3.6,1.6,5.4,3.7,5.4c1.6,0,3-1,4.2-2.5V14.7z"/>
	</g>
</g>
</svg>
